HIERARCHY
ROOT Hips
{
	OFFSET 0.000000 0.000000 0.000000
	CHANNELS 6 Xposition Yposition Zposition Xrotation Yrotation Zrotation
	JOINT LeftUpLeg_virtual
	{
		OFFSET 0.000000 0.000000 0.000000
		CHANNELS 3 Xrotation Yrotation Zrotation
		JOINT LeftUpLeg
		{
			OFFSET 10.205400 -3.823500 0.155100
			CHANNELS 3 Xrotation Yrotation Zrotation
			JOINT LeftLeg
			{
				OFFSET 0.708757 -12.982077 0.567790
				CHANNELS 3 Xrotation Yrotation Zrotation
				JOINT LeftFoot
				{
					OFFSET -0.708756 -10.717838 -2.184338
					CHANNELS 3 Xrotation Yrotation Zrotation
					JOINT LeftToeBase
					{
						OFFSET 0.108149 -7.191104 7.560241
						CHANNELS 3 Xrotation Yrotation Zrotation
						JOINT LeftToe_End
						{
							OFFSET 0.070230 0.081724 4.490308
							CHANNELS 3 Xrotation Yrotation Zrotation
							End Site
							{
								OFFSET 0 0 0
							}
						}
					}
				}
			}
		}
	}
	JOINT RightUpLeg_virtual
	{
		OFFSET 0.000000 0.000000 0.000000
		CHANNELS 3 Xrotation Yrotation Zrotation
		JOINT RightUpLeg
		{
			OFFSET -10.205400 -3.823500 0.005500
			CHANNELS 3 Xrotation Yrotation Zrotation
			JOINT RightLeg
			{
				OFFSET -0.708756 -12.982134 0.610632
				CHANNELS 3 Xrotation Yrotation Zrotation
				JOINT RightFoot
				{
					OFFSET 0.708754 -10.717769 -1.945823
					CHANNELS 3 Xrotation Yrotation Zrotation
					JOINT RightToeBase
					{
						OFFSET -0.108140 -7.191069 7.372968
						CHANNELS 3 Xrotation Yrotation Zrotation
						JOINT RightToe_End
						{
							OFFSET -0.070227 0.081735 4.479403
							CHANNELS 3 Xrotation Yrotation Zrotation
							End Site
							{
								OFFSET 0 0 0
							}
						}
					}
				}
			}
		}
	}
	JOINT Spine_virtual
	{
		OFFSET 0.000000 0.000000 0.000000
		CHANNELS 3 Xrotation Yrotation Zrotation
		JOINT Spine
		{
			OFFSET 0.000000 6.876099 0.125700
			CHANNELS 3 Xrotation Yrotation Zrotation
			JOINT Spine1
			{
				OFFSET 0.000000 5.730043 0.104720
				CHANNELS 3 Xrotation Yrotation Zrotation
				JOINT Spine1_split
				{
					OFFSET 0.000000 5.730043 0.104720
					CHANNELS 3 Xrotation Yrotation Zrotation
					JOINT Spine2
					{
						OFFSET 0.000000 5.730043 0.104720
						CHANNELS 3 Xrotation Yrotation Zrotation
						JOINT Neck_virtual
						{
							OFFSET 0.000000 0.000000 0.000000
							CHANNELS 3 Xrotation Yrotation Zrotation
							JOINT Neck
							{
								OFFSET 0.000000 10.314075 0.188496
								CHANNELS 3 Xrotation Yrotation Zrotation
								JOINT Head
								{
									OFFSET 0.000000 7.643700 -2.377400
									CHANNELS 3 Xrotation Yrotation Zrotation
									JOINT HeadTop_End
									{
										OFFSET 0.000000 43.788605 -13.619600
										CHANNELS 3 Xrotation Yrotation Zrotation
										End Site
										{
											OFFSET 0 0 0
										}
									}
								}
							}
						}
						JOINT LeftShoulder_virtual
						{
							OFFSET 0.000000 0.000000 0.000000
							CHANNELS 3 Xrotation Yrotation Zrotation
							JOINT LeftShoulder
							{
								OFFSET 2.196100 4.412489 0.087492
								CHANNELS 3 Xrotation Yrotation Zrotation
								JOINT LeftShoulder_split
								{
									OFFSET 2.196100 4.412489 0.087492
									CHANNELS 3 Xrotation Yrotation Zrotation
									JOINT LeftArm
									{
										OFFSET 8.771219 -2.981674 -0.026999
										CHANNELS 3 Xrotation Yrotation Zrotation
										JOINT LeftForeArm
										{
											OFFSET 8.512804 0.000000 -0.000000
											CHANNELS 3 Xrotation Yrotation Zrotation
											JOINT LeftHand
											{
												OFFSET 18.484802 0.000000 -0.000000
												CHANNELS 3 Xrotation Yrotation Zrotation
												End Site
												{
													OFFSET 0 0 0
												}
											}
										}
									}
								}
							}
						}
						JOINT RightShoulder_virtual
						{
							OFFSET 0.000000 0.000000 0.000000
							CHANNELS 3 Xrotation Yrotation Zrotation
							JOINT RightShoulder
							{
								OFFSET -2.196100 4.412496 0.070690
								CHANNELS 3 Xrotation Yrotation Zrotation
								JOINT RightShoulder_split
								{
									OFFSET -2.196100 4.412496 0.070690
									CHANNELS 3 Xrotation Yrotation Zrotation
									JOINT RightArm
									{
										OFFSET -8.771282 -2.981682 -0.094208
										CHANNELS 3 Xrotation Yrotation Zrotation
										JOINT RightForeArm
										{
											OFFSET -8.494598 0.000000 0.000000
											CHANNELS 3 Xrotation Yrotation Zrotation
											JOINT RightHand
											{
												OFFSET -18.483803 0.000000 0.000001
												CHANNELS 3 Xrotation Yrotation Zrotation
												End Site
												{
													OFFSET 0 0 0
												}
											}
										}
									}
								}
							}
						}
					}
				}
			}
		}
	}
}
MOTION
Frames: 6
Frame Time: 0.03333333
0.582181 29.223991 10.272219 0.000000 0.000000 0.000000 9.560378 -52.738093 3.769040 -2.256910 11.874081 -11.774064 52.812023 4.146553 -16.160525 -42.091546 -11.927989 23.401512 -5.165698 -13.300144 0.872806 0.000000 0.000000 0.000000 8.976203 -50.893809 3.383010 -49.884785 -4.733896 5.611052 28.441270 7.765119 -5.167768 2.014859 -0.087378 15.309997 3.605733 -6.159872 -0.669629 0.000000 0.000000 0.000000 6.436256 -45.699372 2.151035 16.484289 -6.929001 1.734365 5.565793 -5.663895 2.368066 -0.571749 -2.065046 0.746494 0.000000 0.000000 0.000000 -3.427854 -5.096779 1.342082 0.416040 39.600890 -10.134782 -0.115725 27.996139 -7.252495 0.000000 0.000000 0.000000 -2.215010 -6.432339 1.866077 1.085076 -2.510862 -2.254218 -2.002467 2.260332 -2.538037 -0.202488 -3.337186 -27.734897 -0.532316 -27.028541 -1.835420 0.000000 0.000000 0.000000 -4.062103 -6.077655 2.738603 10.004599 -12.360499 3.596627 0.661561 1.874603 -0.712969 1.749510 6.005661 77.723899 -6.635958 11.778542 6.089712 0.000000 0.000000 0.000000 
1.259955 29.415974 9.407398 0.000000 0.000000 0.000000 10.173649 -56.164523 4.542345 -2.982538 10.667010 -13.838209 52.266312 3.761764 -14.644887 -44.838426 -13.809400 22.465665 -4.278807 -13.978651 2.465620 0.000000 0.000000 0.000000 8.514393 -53.217064 3.581774 -48.351742 -4.139259 4.189240 31.042629 7.228684 -5.503420 3.191849 0.930193 15.389924 5.294296 -4.857685 0.059709 0.000000 0.000000 0.000000 6.685260 -48.788519 2.884741 16.858087 -6.817563 0.909949 4.736940 -5.123759 2.385775 -0.528484 -1.714990 0.546373 0.000000 0.000000 0.000000 -4.513429 -4.448157 1.346469 1.127564 40.000429 -10.527812 0.916908 27.816698 -7.863423 0.000000 0.000000 0.000000 -3.078980 -5.825008 2.002604 0.884959 -1.740964 -2.210359 -0.493512 3.436425 -2.770685 -5.278289 -4.601017 -28.332665 -0.100116 -31.613339 -1.995544 0.000000 0.000000 0.000000 -5.018803 -5.525691 2.726790 10.415922 -11.247627 3.708450 -0.216803 2.496081 -1.246838 3.413578 11.473120 74.414877 -5.127565 15.310940 7.579290 0.000000 0.000000 0.000000 
1.791999 29.580639 8.584805 0.000000 0.000000 0.000000 11.304281 -59.604124 6.234949 -5.430455 10.471364 -14.772407 54.041632 4.127052 -12.918431 -45.284462 -14.605786 20.202499 -4.052218 -14.902411 3.075106 0.000000 0.000000 0.000000 8.013686 -55.859281 4.207066 -46.884621 -3.200655 3.141298 34.761783 6.735550 -5.697496 6.042998 2.049280 15.583895 5.418721 -3.839048 1.097579 0.000000 0.000000 0.000000 6.795240 -51.808573 3.767009 17.443571 -6.522460 0.574148 3.996168 -4.477974 2.364080 -0.265292 -1.447865 0.677768 0.000000 0.000000 0.000000 -5.416776 -3.773093 1.348481 2.708669 40.206786 -11.484378 1.525069 27.341440 -8.260824 0.000000 0.000000 0.000000 -3.693397 -5.134794 2.036074 0.773613 -1.107198 -2.586766 1.166572 4.038356 -2.536929 -8.728384 -5.642414 -29.113152 -0.320724 -35.252526 -2.408327 0.000000 0.000000 0.000000 -5.653209 -4.853227 2.627954 10.705471 -9.850389 4.384493 -1.110530 2.636903 -1.718649 5.508606 15.037046 70.410467 -3.135928 19.829559 8.801695 0.000000 0.000000 0.000000 
2.168494 29.766535 7.741180 0.000000 0.000000 0.000000 12.576569 -62.853504 8.517833 -8.675888 10.656102 -15.217219 56.048280 5.459760 -10.622474 -44.166623 -13.388142 16.122484 -1.798390 -15.693721 2.751137 0.000000 0.000000 0.000000 7.254030 -58.685006 4.920298 -45.366868 -2.244554 2.280820 38.428594 5.980613 -5.756333 8.957645 2.869319 15.137697 5.313319 -3.031655 2.509895 0.000000 0.000000 0.000000 6.502915 -54.587756 4.449841 18.099421 -6.019824 0.658672 3.337949 -3.737470 2.226562 -0.126367 -1.777970 0.879015 0.000000 0.000000 0.000000 -6.045535 -3.085971 1.298697 4.937927 40.244530 -12.726230 1.871586 26.652761 -8.566956 0.000000 0.000000 0.000000 -4.097021 -4.394049 1.909822 0.713441 -0.597805 -3.423782 2.618850 4.018321 -2.029758 -10.551967 -6.754778 -29.802448 -1.260961 -38.596511 -3.110841 0.000000 0.000000 0.000000 -5.988005 -4.114470 2.384231 10.803736 -8.279315 5.460669 -1.808891 2.331814 -2.439150 7.091806 16.390355 65.961842 -0.904980 24.505696 9.519736 0.000000 0.000000 0.000000 
2.457446 29.990911 6.832516 0.000000 0.000000 0.000000 13.456315 -65.547659 10.609899 -10.732102 10.740594 -15.801848 55.427907 7.607042 -7.838322 -43.169172 -11.093434 10.918197 -3.238922 -16.774827 4.005208 0.000000 0.000000 0.000000 6.672928 -61.189971 5.679138 -43.915415 -1.314433 1.353202 41.240570 4.988735 -5.896254 10.678455 3.226941 13.942584 5.711463 -2.312331 3.958575 0.000000 0.000000 0.000000 5.939084 -56.886569 4.760515 18.638693 -5.358498 1.005238 2.778368 -2.980487 1.932633 -0.120669 -2.331924 1.041582 0.000000 0.000000 0.000000 -6.270669 -2.402921 1.179845 7.521825 40.077556 -13.949233 2.095550 25.899743 -8.914393 0.000000 0.000000 0.000000 -4.316430 -3.656614 1.649198 0.699213 -0.101893 -4.601863 3.626247 3.514524 -1.320461 -10.818991 -7.737718 -30.232108 -2.821325 -42.682204 -4.127356 0.000000 0.000000 0.000000 -6.143248 -3.385988 2.017391 10.711343 -6.708938 6.732741 -2.194625 1.559742 -3.156817 7.547496 16.096205 61.829051 1.379931 28.974994 9.645941 0.000000 0.000000 0.000000 
2.687041 30.237444 5.892752 0.000000 0.000000 0.000000 13.694638 -67.216254 11.864941 -10.673996 10.919665 -16.385404 51.929751 10.864789 -5.130356 -43.337199 -9.285892 8.017692 -8.179666 -18.477603 6.875323 0.000000 0.000000 0.000000 6.299625 -63.041833 6.283335 -42.590543 -0.277406 0.099389 43.118882 4.005819 -6.215058 11.422518 3.344387 12.738994 6.515052 -1.558736 5.138347 0.000000 0.000000 0.000000 5.012452 -58.669228 4.589477 18.812412 -4.602134 1.415838 2.340150 -2.254742 1.504948 -0.411233 -3.374036 1.061028 0.000000 0.000000 0.000000 -6.159518 -1.766487 1.012923 10.044922 39.788779 -14.854012 2.223929 25.395371 -9.397020 0.000000 0.000000 0.000000 -4.449292 -2.942905 1.317672 0.726633 0.542180 -5.737662 4.353834 3.113585 -0.599015 -10.281418 -8.349689 -30.578200 -4.621467 -47.380483 -5.350636 0.000000 0.000000 0.000000 -6.203100 -2.731742 1.593076 10.452802 -5.294895 7.971747 -2.238209 0.660697 -3.634074 6.906195 15.131782 58.554508 3.509023 33.057214 9.248281 0.000000 0.000000 0.000000 
